<svg width="1125" height="1125" viewBox="0 0 1125 1125" fill="none" xmlns="http://www.w3.org/2000/svg">
<path d="M563.022 93C563.022 93 634.033 107.33 788.138 147.112C933.584 184.653 984.646 199.696 984.743 199.725C984.757 199.996 992.18 350.253 926.204 622.026C872.89 841.616 674.058 963.171 563 1032C451.942 963.171 253.11 841.616 199.796 622.026C133.821 350.254 141.243 199.997 141.257 199.725C141.325 199.705 192.374 184.664 337.862 147.112C491.836 107.375 562.86 93.0329 563.022 93ZM563.02 160C562.947 160.015 502.027 172.305 369.873 206.39C244.986 238.604 201.22 251.494 201.22 251.494C201.205 251.785 194.853 380.594 251.436 613.531C297.17 801.784 467.732 905.993 563 965C563 795.001 563.02 350.501 563.02 160Z" fill="url(#paint0_linear_73_8)"/>
<defs>
<linearGradient id="paint0_linear_73_8" x1="563" y1="93" x2="563" y2="1032" gradientUnits="userSpaceOnUse">
<stop stop-color="#89FBE5"/>
<stop offset="1" stop-color="#86FE7C"/>
</linearGradient>
</defs>
</svg>
